<?xml version="1.0" encoding="UTF-8" standalone="no"?>
<svg
   viewBox="0 0 24 24"
   version="1.1"
   id="svg8"
   sodipodi:docname="soundcloud.svg"
   inkscape:version="1.2.2 (732a01da63, 2022-12-09)"
   xmlns:inkscape="http://www.inkscape.org/namespaces/inkscape"
   xmlns:sodipodi="http://sodipodi.sourceforge.net/DTD/sodipodi-0.dtd"
   xmlns="http://www.w3.org/2000/svg"
   xmlns:svg="http://www.w3.org/2000/svg">
  <defs
     id="defs12" />
  <sodipodi:namedview
     id="namedview10"
     pagecolor="#ffffff"
     bordercolor="#000000"
     borderopacity="0.25"
     inkscape:showpageshadow="2"
     inkscape:pageopacity="0.0"
     inkscape:pagecheckerboard="0"
     inkscape:deskcolor="#d1d1d1"
     showgrid="false"
     inkscape:zoom="21.541667"
     inkscape:cx="12.023211"
     inkscape:cy="12.023211"
     inkscape:window-width="1366"
     inkscape:window-height="697"
     inkscape:window-x="-8"
     inkscape:window-y="-8"
     inkscape:window-maximized="1"
     inkscape:current-layer="svg8" />
  <g
     id="g6"
     style="fill:#ffffff">
    <path
       d="M0 0h24v24H0z"
       fill="none"
       id="path2"
       style="fill:#ffffff" />
    <path
       d="M10.464 8.596c.265 0 .48 2.106.48 4.704l-.001.351c-.019 2.434-.226 4.353-.479 4.353-.256 0-.465-1.965-.48-4.44v-.352c.005-2.558.218-4.616.48-4.616zm-1.664.96c.259 0 .47 1.8.48 4.054v.34c-.01 2.254-.221 4.054-.48 4.054-.255 0-.464-1.755-.48-3.97v-.34l.002-.34c.025-2.133.23-3.798.478-3.798zm-1.664 0c.255 0 .464 1.755.48 3.97v.34l-.002.34c-.025 2.133-.23 3.798-.478 3.798-.259 0-.47-1.8-.48-4.054v-.34c.01-2.254.221-4.054.48-4.054zm-1.664.576c.265 0 .48 1.762.48 3.936l-.002.335c-.02 2.017-.227 3.601-.478 3.601-.262 0-.474-1.717-.48-3.852v-.168c.006-2.135.218-3.852.48-3.852zM3.808 11.86c.265 0 .48 1.375.48 3.072v.158c-.013 1.623-.223 2.914-.48 2.914-.265 0-.48-1.375-.48-3.072v-.158c.013-1.623.223-2.914.48-2.914zm10.784-4.8c2.58 0 4.72 1.886 5.118 4.354a3.36 3.36 0 1 1 .993 6.589l-.063.001h-8.16a.768.768 0 0 1-.768-.768V7.933a5.16 5.16 0 0 1 2.88-.873zM2.144 11.668c.265 0 .48 1.332.48 2.976v.156c-.014 1.57-.223 2.82-.48 2.82-.26 0-.473-1.29-.48-2.898v-.078c0-1.644.215-2.976.48-2.976zm-1.664.96c.265 0 .48.946.48 2.112v.131c-.016 1.105-.225 1.981-.48 1.981-.265 0-.48-.946-.48-2.112v-.131c.016-1.105.225-1.981.48-1.981z"
       id="path4"
       style="fill:#ffffff" />
  </g>
</svg>
