<?xml version="1.0" encoding="UTF-8" standalone="no"?>
<svg
   enable-background="new 0 0 512 512"
   height="512px"
   id="Layer_12"
   version="1.1"
   viewBox="0 0 512 512"
   width="512px"
   xml:space="preserve"
   sodipodi:docname="soundcloud (2).svg"
   inkscape:version="1.2.2 (732a01da63, 2022-12-09)"
   xmlns:inkscape="http://www.inkscape.org/namespaces/inkscape"
   xmlns:sodipodi="http://sodipodi.sourceforge.net/DTD/sodipodi-0.dtd"
   xmlns="http://www.w3.org/2000/svg"
   xmlns:svg="http://www.w3.org/2000/svg"><defs
     id="defs7" /><sodipodi:namedview
     id="namedview5"
     pagecolor="#ffffff"
     bordercolor="#000000"
     borderopacity="0.25"
     inkscape:showpageshadow="2"
     inkscape:pageopacity="0.0"
     inkscape:pagecheckerboard="0"
     inkscape:deskcolor="#d1d1d1"
     showgrid="false"
     inkscape:zoom="1.0097656"
     inkscape:cx="255.50484"
     inkscape:cy="256.49516"
     inkscape:window-width="1366"
     inkscape:window-height="697"
     inkscape:window-x="-8"
     inkscape:window-y="-8"
     inkscape:window-maximized="1"
     inkscape:current-layer="Layer_12" /><path
     clip-rule="evenodd"
     d="M512,303.844c0,44.18-35.82,80-80,80h-32c-8.844,0-16-7.156-16-16  s7.156-16,16-16h32c26.516,0,48-21.492,48-48s-21.484-48-48-48h-0.25c-20.812,0-38.539-13.25-45.188-31.766  c-0.047-0.117-0.156-0.234-0.195-0.352c-12.492-35.078-44.727-60.758-83.398-63.531c-8.359,0.539-14.969,7.406-14.969,15.906  v191.742c0,8.844-7.156,16-16,16s-16-7.156-16-16V176.102c0-26.32,21.156-47.617,47.398-47.945  c52.242,2.984,95.961,37.297,112.891,84.438c0.078,0.078,0.234,0.156,0.258,0.234c2.094,6.398,8.102,11.016,15.203,11.016H432  c0.891,0,1.766,0.102,2.656,0.141C434.812,224,435.047,224,435.18,224C477.891,225.688,512,260.734,512,303.844L512,303.844z   M208,383.844c-8.844,0-16-7.156-16-16v-176c0-8.844,7.156-16,16-16s16,7.156,16,16v176C224,376.688,216.844,383.844,208,383.844  L208,383.844z M144,383.844c-8.844,0-16-7.156-16-16V183.836c0-8.828,7.156-16,16-16s16,7.172,16,16v184.008  C160,376.688,152.844,383.844,144,383.844L144,383.844z M80,383.844c-8.844,0-16-7.156-16-16v-128c0-8.844,7.156-16,16-16  s16,7.156,16,16v128C96,376.688,88.844,383.844,80,383.844L80,383.844z M16,351.844c-8.844,0-16-7.156-16-16v-64  c0-8.844,7.156-16,16-16s16,7.156,16,16v64C32,344.688,24.844,351.844,16,351.844L16,351.844z M336,351.844c8.844,0,16,7.156,16,16  s-7.156,16-16,16s-16-7.156-16-16S327.156,351.844,336,351.844L336,351.844z"
     fill="#FF832D"
     fill-rule="evenodd"
     id="path2"
     style="fill:#ffffff" /></svg>
