<?xml version="1.0" encoding="UTF-8" standalone="no"?>
<svg
   version="1.1"
   id="Layer_1"
   width="24px"
   height="24px"
   viewBox="0 0 24 24"
   style="enable-background:new 0 0 24 24;"
   xml:space="preserve"
   sodipodi:docname="x.svg"
   inkscape:version="1.2.2 (732a01da63, 2022-12-09)"
   xmlns:inkscape="http://www.inkscape.org/namespaces/inkscape"
   xmlns:sodipodi="http://sodipodi.sourceforge.net/DTD/sodipodi-0.dtd"
   xmlns="http://www.w3.org/2000/svg"
   xmlns:svg="http://www.w3.org/2000/svg"><defs
     id="defs11" /><sodipodi:namedview
     id="namedview9"
     pagecolor="#ffffff"
     bordercolor="#000000"
     borderopacity="0.25"
     inkscape:showpageshadow="2"
     inkscape:pageopacity="0.0"
     inkscape:pagecheckerboard="0"
     inkscape:deskcolor="#d1d1d1"
     showgrid="false"
     inkscape:zoom="21.541667"
     inkscape:cx="12.023211"
     inkscape:cy="12.023211"
     inkscape:window-width="1366"
     inkscape:window-height="697"
     inkscape:window-x="-8"
     inkscape:window-y="-8"
     inkscape:window-maximized="1"
     inkscape:current-layer="Layer_1" /><g
     id="g6"
     style="fill:#ffffff"><polygon
       points="12.153992,10.729553 8.088684,5.041199 5.92041,5.041199 10.956299,12.087097 11.59021,12.97345    15.900635,19.009583 18.068909,19.009583 12.785217,11.615906  "
       id="polygon2"
       style="fill:#ffffff" /><path
       d="M21.15979,1H2.84021C1.823853,1,1,1.823853,1,2.84021v18.31958C1,22.176147,1.823853,23,2.84021,23h18.31958   C22.176147,23,23,22.176147,23,21.15979V2.84021C23,1.823853,22.176147,1,21.15979,1z M15.235352,20l-4.362549-6.213013   L5.411438,20H4l6.246887-7.104675L4,4h4.764648l4.130127,5.881958L18.06958,4h1.411377l-5.95697,6.775635L20,20H15.235352z"
       id="path4"
       style="fill:#ffffff" /></g></svg>
